<svg width="144" height="36" viewBox="0 0 144 36" fill="none" xmlns="http://www.w3.org/2000/svg">
<path fill-rule="evenodd" clip-rule="evenodd" d="M18.3164 33.5097L19.212 31.9966C19.9067 30.8229 20.254 30.2361 20.812 29.9116C21.3699 29.5871 22.0723 29.575 23.4772 29.5508C25.5512 29.5151 26.852 29.388 27.9429 28.9361C29.967 28.0977 31.5751 26.4896 32.4135 24.4655C33.0423 22.9475 33.0423 21.023 33.0423 17.174V15.5219C33.0423 10.1138 33.0423 7.40976 31.825 5.42333C31.1439 4.31182 30.2094 3.3773 29.0979 2.69616C27.1114 1.47888 24.4074 1.47888 18.9993 1.47888H14.043C8.63489 1.47888 5.93085 1.47888 3.94444 2.69616C2.83293 3.3773 1.89841 4.31182 1.21728 5.42333C0 7.40976 0 10.1138 0 15.5219V17.174C0 21.023 0 22.9475 0.628799 24.4655C1.4672 26.4896 3.07532 28.0977 5.09939 28.9361C6.19029 29.388 7.49105 29.5151 9.56505 29.5508C10.9699 29.575 11.6723 29.5871 12.2303 29.9116C12.7882 30.2361 13.1355 30.8229 13.8302 31.9966L14.7258 33.5097C15.5241 34.8583 17.5182 34.8583 18.3164 33.5097ZM11.9345 21.923C12.6084 21.2492 12.6084 20.1567 11.9345 19.4828L8.54544 16.0937L11.9751 12.7514C12.6576 12.0863 12.6717 10.9939 12.0066 10.3114C11.3415 9.62892 10.2491 9.61483 9.56659 10.2799L5.02039 14.7103C4.96549 14.7533 4.9126 14.8 4.86206 14.8505C4.59767 15.1149 4.43701 15.4438 4.3801 15.7865C4.2869 16.3147 4.44056 16.8786 4.84347 17.292C4.90144 17.3515 4.96265 17.4059 5.02655 17.4553L9.49432 21.923C10.1682 22.5969 11.2607 22.5969 11.9345 21.923ZM22.0335 10.2955C21.3597 10.9694 21.3597 12.0619 22.0335 12.7358L25.4234 16.1256L21.9943 19.4674C21.3118 20.1325 21.2977 21.2249 21.9628 21.9074C22.6279 22.5899 23.7203 22.6039 24.4028 21.9389L28.9558 17.5019C29.0078 17.4607 29.058 17.4161 29.106 17.368C29.3364 17.1376 29.488 16.8583 29.5609 16.5635C29.7064 15.9991 29.5624 15.3746 29.1259 14.9267C29.0665 14.8657 29.0036 14.8101 28.938 14.7598L24.4737 10.2955C23.7999 9.62169 22.7074 9.62169 22.0335 10.2955ZM16.4557 10.0964C16.7516 8.99219 17.8866 8.33689 18.9908 8.63277C20.0951 8.92865 20.7504 10.0637 20.4545 11.1679L17.5216 22.1135C17.2257 23.2178 16.0907 23.8731 14.9865 23.5772C13.8822 23.2813 13.2269 22.1463 13.5228 21.0421L16.4557 10.0964ZM17.646 10.4676C17.6113 10.6046 17.4721 10.6876 17.3351 10.6529C17.1981 10.6183 17.1151 10.4791 17.1498 10.3421C17.1845 10.2051 17.3236 10.1221 17.4606 10.1568C17.5976 10.1914 17.6806 10.3306 17.646 10.4676ZM17.0606 11.7426C17.1976 11.7773 17.3368 11.6943 17.3715 11.5573C17.4061 11.4203 17.3232 11.2811 17.1861 11.2464C17.0491 11.2118 16.91 11.2947 16.8753 11.4318C16.8407 11.5688 16.9236 11.7079 17.0606 11.7426ZM17.0956 12.6471C17.061 12.7841 16.9218 12.8671 16.7848 12.8324C16.6478 12.7978 16.5648 12.6586 16.5995 12.5216C16.6341 12.3846 16.7733 12.3016 16.9103 12.3363C17.0473 12.3709 17.1303 12.5101 17.0956 12.6471ZM18.3744 10.9161C18.5114 10.9508 18.6505 10.8678 18.6852 10.7308C18.7199 10.5938 18.6369 10.4546 18.4999 10.4199C18.3629 10.3853 18.2237 10.4683 18.189 10.6053C18.1544 10.7423 18.2374 10.8814 18.3744 10.9161ZM18.409 11.8207C18.3744 11.9577 18.2352 12.0407 18.0982 12.006C17.9612 11.9713 17.8782 11.8322 17.9129 11.6952C17.9475 11.5582 18.0867 11.4752 18.2237 11.5099C18.3607 11.5445 18.4437 11.6837 18.409 11.8207ZM17.824 13.0949C17.9611 13.1295 18.1002 13.0466 18.1349 12.9096C18.1695 12.7725 18.0866 12.6334 17.9496 12.5987C17.8125 12.5641 17.6734 12.647 17.6387 12.784C17.6041 12.921 17.687 13.0602 17.824 13.0949ZM19.7244 10.9939C19.6898 11.1309 19.5506 11.2138 19.4136 11.1792C19.2766 11.1445 19.1936 11.0054 19.2283 10.8683C19.2629 10.7313 19.4021 10.6484 19.5391 10.683C19.6761 10.7177 19.7591 10.8568 19.7244 10.9939ZM19.1371 12.2683C19.2741 12.3029 19.4133 12.2199 19.4479 12.0829C19.4826 11.9459 19.3996 11.8068 19.2626 11.7721C19.1256 11.7374 18.9864 11.8204 18.9518 11.9574C18.9171 12.0944 19.0001 12.2336 19.1371 12.2683ZM19.1721 13.1723C19.1374 13.3094 18.9983 13.3923 18.8613 13.3577C18.7243 13.323 18.6413 13.1838 18.6759 13.0468C18.7106 12.9098 18.8498 12.8268 18.9868 12.8615C19.1238 12.8962 19.2068 13.0353 19.1721 13.1723ZM16.5755 14.5641C16.3369 14.4991 16.0908 14.6398 16.0258 14.8784L15.5332 16.6867C15.4682 16.9253 15.609 17.1715 15.8476 17.2365L17.3613 17.6487C17.6 17.7137 17.8461 17.573 17.9111 17.3344L18.4036 15.5261C18.4686 15.2875 18.3279 15.0413 18.0892 14.9764L16.5755 14.5641ZM15.2376 19.5457C15.2029 19.6828 15.0638 19.7657 14.9268 19.7311C14.7898 19.6964 14.7068 19.5572 14.7414 19.4202C14.7761 19.2832 14.9153 19.2003 15.0523 19.2349C15.1893 19.2696 15.2723 19.4087 15.2376 19.5457ZM14.6509 20.8211C14.7879 20.8558 14.9271 20.7728 14.9618 20.6358C14.9964 20.4988 14.9135 20.3596 14.7764 20.325C14.6394 20.2903 14.5003 20.3733 14.4656 20.5103C14.4309 20.6473 14.5139 20.7865 14.6509 20.8211ZM14.6873 21.725C14.6526 21.862 14.5134 21.945 14.3764 21.9104C14.2394 21.8757 14.1565 21.7365 14.1911 21.5995C14.2258 21.4625 14.3649 21.3795 14.5019 21.4142C14.639 21.4489 14.7219 21.588 14.6873 21.725ZM15.9657 19.9942C16.1027 20.0289 16.2418 19.9459 16.2765 19.8089C16.3112 19.6719 16.2282 19.5327 16.0912 19.498C15.9542 19.4634 15.815 19.5464 15.7803 19.6834C15.7457 19.8204 15.8287 19.9595 15.9657 19.9942ZM16.0013 20.898C15.9667 21.035 15.8275 21.118 15.6905 21.0834C15.5535 21.0487 15.4705 20.9095 15.5052 20.7725C15.5398 20.6355 15.679 20.5525 15.816 20.5872C15.953 20.6219 16.036 20.761 16.0013 20.898ZM15.414 22.1727C15.551 22.2073 15.6902 22.1244 15.7248 21.9874C15.7595 21.8503 15.6765 21.7112 15.5395 21.6765C15.4025 21.6419 15.2633 21.7248 15.2287 21.8618C15.194 21.9989 15.277 22.138 15.414 22.1727ZM17.3161 20.0712C17.2814 20.2082 17.1423 20.2912 17.0052 20.2565C16.8682 20.2219 16.7853 20.0827 16.8199 19.9457C16.8546 19.8087 16.9937 19.7257 17.1308 19.7604C17.2678 19.795 17.3507 19.9342 17.3161 20.0712ZM16.7294 21.3456C16.8664 21.3803 17.0056 21.2973 17.0402 21.1603C17.0749 21.0233 16.9919 20.8841 16.8549 20.8494C16.7179 20.8148 16.5787 20.8978 16.5441 21.0348C16.5094 21.1718 16.5924 21.3109 16.7294 21.3456ZM16.7637 22.2504C16.7291 22.3874 16.5899 22.4703 16.4529 22.4357C16.3159 22.401 16.2329 22.2619 16.2676 22.1248C16.3022 21.9878 16.4414 21.9049 16.5784 21.9395C16.7154 21.9742 16.7984 22.1133 16.7637 22.2504Z" fill="#875BF8"/>
<path d="M45.4909 9.22063H50.3898C53.0082 9.22063 55.2888 9.50218 57.3723 11.0507C59.6528 12.7682 60.9761 15.4992 60.9761 18.6244C60.9761 21.7496 59.681 24.4525 57.2033 26.1981C55.0072 27.7466 52.9519 28 50.3335 28H45.4909V9.22063ZM49.151 12.374V24.8466H50.2772C51.2063 24.8466 53.2335 24.7903 54.8665 23.6078C56.3587 22.5379 57.2033 20.6234 57.2033 18.6244C57.2033 16.6535 56.3868 14.739 54.8946 13.6128C53.3742 12.4866 51.516 12.374 50.2772 12.374H49.151ZM63.8457 28V15.8089H67.2806V17.639C67.8156 16.5972 68.5476 16.0904 68.801 15.9497C69.3359 15.6118 70.0116 15.4147 70.8281 15.4147C71.4194 15.4147 71.898 15.5555 72.2922 15.6963L71.8417 18.9059C71.3912 18.5962 70.9408 18.4555 70.2369 18.4555C69.5893 18.4555 68.632 18.5962 67.9563 19.4409C67.3088 20.2574 67.2806 21.2991 67.2806 22.1438V28H63.8457ZM94.6965 23.0447V27.3243C93.5703 27.9155 92.0781 28.4223 90.051 28.4223C86.7568 28.4223 84.7578 27.2961 83.1811 25.8039C81.0132 23.7204 80.1686 21.3836 80.1686 18.6244C80.1686 15.2176 81.5763 12.7682 83.1811 11.2759C85.0675 9.50218 87.4044 8.7983 90.0791 8.7983C91.4024 8.7983 92.9791 9.02354 94.6965 9.95266V14.2322C92.9791 12.2614 90.8393 12.1206 90.1636 12.1206C86.3908 12.1206 83.9413 15.2176 83.9413 18.6807C83.9413 22.8476 87.151 25.1 90.3043 25.1C92.05 25.1 93.5985 24.3399 94.6965 23.0447ZM103.918 15.4147C106.226 15.4147 107.803 16.1749 108.845 17.1322C110.056 18.2302 110.9 19.9195 110.9 21.9185C110.9 23.8894 110.056 25.5787 108.845 26.6767C107.803 27.634 106.226 28.3942 103.918 28.3942C101.609 28.3942 100.032 27.634 98.9906 26.6767C97.7799 25.5787 96.9353 23.8894 96.9353 21.9185C96.9353 19.9195 97.7799 18.2302 98.9906 17.1322C100.032 16.1749 101.609 15.4147 103.918 15.4147ZM103.918 25.3534C105.917 25.3534 107.353 23.7768 107.353 21.9185C107.353 20.004 105.889 18.4555 103.918 18.4555C101.947 18.4555 100.483 20.004 100.483 21.9185C100.483 23.7768 101.919 25.3534 103.918 25.3534ZM122.904 17.3856V7.47502H126.339V28H122.904V26.4233C121.665 28.1971 120.032 28.3942 119.16 28.3942C115.415 28.3942 112.937 25.4661 112.937 21.8904C112.937 18.2865 115.387 15.4147 118.991 15.4147C119.92 15.4147 121.75 15.5837 122.904 17.3856ZM119.864 18.4555C117.893 18.4555 116.485 19.9477 116.485 21.8904C116.485 23.8331 117.893 25.3534 119.864 25.3534C121.834 25.3534 123.242 23.8331 123.242 21.8904C123.242 19.9477 121.834 18.4555 119.864 18.4555ZM138.426 24.0865L141.58 24.5932C141.214 25.4942 139.834 28.3942 135.583 28.3942C133.612 28.3942 132.12 27.8311 130.909 26.6767C129.558 25.4097 128.995 23.8331 128.995 21.9185C128.995 19.4972 129.98 18.005 130.853 17.1322C132.289 15.7244 133.978 15.4147 135.442 15.4147C137.92 15.4147 139.356 16.4001 140.2 17.4137C141.495 18.9623 141.664 20.8768 141.664 22.2001V22.4816H132.542C132.542 23.2137 132.739 24.002 133.133 24.5369C133.499 25.0437 134.26 25.6913 135.583 25.6913C136.878 25.6913 137.863 25.0719 138.426 24.0865ZM132.655 20.2855H138.426C138.145 18.6244 136.794 17.8361 135.527 17.8361C134.26 17.8361 132.936 18.6525 132.655 20.2855Z" fill="white"/>
</svg>
